<svg width="820" height="220" viewBox="0 0 820 220" fill="none" xmlns="http://www.w3.org/2000/svg">
  <defs>
    <linearGradient id="thockAccent" x1="0" y1="0" x2="1" y2="1" gradientUnits="objectBoundingBox">
      <stop offset="0" stop-color="#2DD4BF"/>
      <stop offset="1" stop-color="#0D9488"/>
    </linearGradient>
    <filter id="softShadow" x="-20%" y="-20%" width="140%" height="140%" filterUnits="objectBoundingBox" color-interpolation-filters="sRGB">
      <feDropShadow dx="0" dy="8" stdDeviation="12" flood-color="#000000" flood-opacity="0.25"/>
    </filter>
  </defs>

  <g filter="url(#softShadow)" transform="translate(10 10)">
    <!-- Keyboard Case -->
    <rect x="0" y="20" width="230" height="140" rx="16" fill="#0F172A"/>
    <!-- Inner board area -->
    <rect x="8" y="28" width="214" height="118" rx="10" fill="#1E293B"/>

    <!-- Keycaps -->
    <g rx="4">
      <!-- Row 1 -->
      <rect x="14" y="38" width="24" height="22" fill="url(#thockAccent)"/> <!-- Esc -->
      <g fill="#F8FAFC">
        <rect x="42" y="38" width="24" height="22"/>
        <rect x="70" y="38" width="24" height="22"/>
        <rect x="98" y="38" width="24" height="22"/>
        <rect x="126" y="38" width="24" height="22"/>
        <rect x="154" y="38" width="24" height="22"/>
      </g>
      <rect x="182" y="38" width="34" height="22" fill="#94A3B8"/> <!-- Backspace -->

      <!-- Row 2 -->
      <rect x="14" y="64" width="36" height="22" fill="#94A3B8"/> <!-- Tab -->
      <g fill="#F8FAFC">
        <rect x="54" y="64" width="24" height="22"/>
        <rect x="82" y="64" width="24" height="22"/>
        <rect x="110" y="64" width="24" height="22"/>
        <rect x="138" y="64" width="24" height="22"/>
      </g>
      <rect x="166" y="64" width="50" height="22" fill="url(#thockAccent)"/> <!-- Enter -->

      <!-- Row 3 -->
      <rect x="14" y="90" width="44" height="22" fill="#94A3B8"/> <!-- Caps -->
      <g fill="#F8FAFC">
        <rect x="62" y="90" width="24" height="22"/>
        <rect x="90" y="90" width="24" height="22"/>
        <rect x="118" y="90" width="24" height="22"/>
      </g>
      <rect x="146" y="90" width="70" height="22" fill="#94A3B8"/> <!-- Shift -->

      <!-- Row 4 -->
      <g fill="#94A3B8">
        <rect x="14" y="116" width="28" height="22"/> <!-- Ctrl -->
        <rect x="46" y="116" width="24" height="22"/> <!-- Win -->
        <rect x="74" y="116" width="24" height="22"/> <!-- Alt -->
      </g>
      <rect x="102" y="116" width="60" height="22" fill="url(#thockAccent)"/> <!-- Space -->
      <g fill="#94A3B8">
        <rect x="166" y="116" width="24" height="22"/> <!-- Fn -->
        <rect x="194" y="116" width="22" height="22"/> <!-- Ctrl -->
      </g>
    </g>
  </g>

  <g transform="translate(260 40)">
    <text x="0" y="100" fill="#14B8A6" font-family="'Inter', 'Montserrat', 'Poppins', sans-serif" font-size="88" font-weight="900" letter-spacing="4">THOCK</text>
  </g>
</svg>
