<svg xmlns="http://www.w3.org/2000/svg" viewBox="0 0 64 64" fill="none">
  <defs>
    <linearGradient id="thockAccent" x1="0" y1="0" x2="1" y2="1" gradientUnits="objectBoundingBox">
      <stop offset="0" stop-color="#2DD4BF"/>
      <stop offset="1" stop-color="#0D9488"/>
    </linearGradient>
    <filter id="softShadow" x="-20%" y="-20%" width="140%" height="140%" filterUnits="objectBoundingBox" color-interpolation-filters="sRGB">
      <feDropShadow dx="0" dy="1.4" stdDeviation="1.4" flood-color="#000000" flood-opacity="0.25"/>
    </filter>
  </defs>

  <g filter="url(#softShadow)" transform="translate(2 6) scale(0.26)">
    <rect x="0" y="20" width="230" height="140" rx="16" fill="#0F172A"/>
    <rect x="8" y="28" width="214" height="118" rx="10" fill="#1E293B"/>

    <rect x="14" y="38" width="24" height="22" rx="4" fill="url(#thockAccent)"/>
    <g fill="#F8FAFC">
      <rect x="42" y="38" width="24" height="22" rx="4"/>
      <rect x="70" y="38" width="24" height="22" rx="4"/>
      <rect x="98" y="38" width="24" height="22" rx="4"/>
      <rect x="126" y="38" width="24" height="22" rx="4"/>
      <rect x="154" y="38" width="24" height="22" rx="4"/>
    </g>
    <rect x="182" y="38" width="34" height="22" rx="4" fill="#94A3B8"/>

    <rect x="14" y="64" width="36" height="22" rx="4" fill="#94A3B8"/>
    <g fill="#F8FAFC">
      <rect x="54" y="64" width="24" height="22" rx="4"/>
      <rect x="82" y="64" width="24" height="22" rx="4"/>
      <rect x="110" y="64" width="24" height="22" rx="4"/>
      <rect x="138" y="64" width="24" height="22" rx="4"/>
    </g>
    <rect x="166" y="64" width="50" height="22" rx="4" fill="url(#thockAccent)"/>

    <rect x="14" y="90" width="44" height="22" rx="4" fill="#94A3B8"/>
    <g fill="#F8FAFC">
      <rect x="62" y="90" width="24" height="22" rx="4"/>
      <rect x="90" y="90" width="24" height="22" rx="4"/>
      <rect x="118" y="90" width="24" height="22" rx="4"/>
    </g>
    <rect x="146" y="90" width="70" height="22" rx="4" fill="#94A3B8"/>

    <g fill="#94A3B8">
      <rect x="14" y="116" width="28" height="22" rx="4"/>
      <rect x="46" y="116" width="24" height="22" rx="4"/>
      <rect x="74" y="116" width="24" height="22" rx="4"/>
    </g>
    <rect x="102" y="116" width="60" height="22" rx="4" fill="url(#thockAccent)"/>
    <g fill="#94A3B8">
      <rect x="166" y="116" width="24" height="22" rx="4"/>
      <rect x="194" y="116" width="22" height="22" rx="4"/>
    </g>
  </g>
</svg>
